<?xml version="1.0" encoding="utf-8"?>
<!-- Generator: Adobe Illustrator 21.1.0, SVG Export Plug-In . SVG Version: 6.00 Build 0)  -->
<svg version="1.1" id="Layer_1" xmlns="http://www.w3.org/2000/svg" xmlns:xlink="http://www.w3.org/1999/xlink" x="0px" y="0px"
	 viewBox="0 0 360 360" style="enable-background:new 0 0 360 360;" xml:space="preserve">
<style type="text/css">
	.st0{fill:#FFFFFF;}
	.st1{fill:#DA0100;stroke:#FFFFFF;stroke-width:2;stroke-miterlimit:10;}
	.st2{fill:none;}
</style>
<g>
	<g>
		<g>
			<path class="st0" d="M62.2,306c0-84.7,0-169.3,0-254c84.6,0,169.3,0,253.9,0c0,84.7,0,169.3,0,254C231.4,306,146.8,306,62.2,306z
				 M144.4,70c-1,0.5-2,0.9-3,1.4c-1.3,0.6-2.6,1.1-3.8,1.7c-0.2,0.1-0.5,0.4-0.5,0.7c-0.1,0.5-0.1,1-0.2,1.5
				c-0.2,1.7-0.3,3.3-0.5,5c-0.1,1.1-0.3,2.1-0.4,3.2c-0.1,1.1-0.2,2.1-0.3,3.2c0,0.2-0.2,0.5-0.5,0.7c-1.9,1.2-3.7,2.3-5.6,3.5
				c-0.1,0.1-0.2,0.1-0.3,0.1c-0.8-0.3-1.6-0.6-2.3-0.8c-1.3-0.5-2.6-1-3.9-1.5c-1.4-0.5-2.8-1-4.2-1.5c-1.2-0.4-2.4-1.2-3.5,0.2
				c-0.1,0.1-0.2,0.1-0.2,0.2c-1.4,1.1-2.7,2.3-4.1,3.4c-0.4,0.3-0.6,0.7-0.5,1.2c0.2,1.2,0.4,2.5,0.6,3.7c0.2,1.3,0.5,2.7,0.7,4
				c0.3,1.6,0.5,3.1,0.8,4.7c0,0.2,0,0.5-0.2,0.6c-1.4,1.6-2.8,3.1-4.2,4.7c-0.4,0.4-0.8,0.6-1.3,0.5c-1.3-0.1-2.7-0.2-4-0.3
				c-2.5-0.2-5-0.4-7.6-0.6c-0.7,0-1.3-0.1-1.8,0.6c-1.1,1.8-2.4,3.5-3.6,5.2c-0.4,0.5-0.4,1-0.1,1.5c0.6,1.2,1.2,2.4,1.8,3.6
				c0.9,1.9,1.7,3.8,2.6,5.6c0.2,0.4,0.3,0.9,0.5,1.2c0.7,0.8,0.5,1.5,0,2.3c-0.5,0.8-0.9,1.7-1.3,2.6c-0.4,0.8-0.8,1.7-1.3,2.5
				c-0.1,0.2-0.4,0.4-0.6,0.4c-0.8,0.2-1.7,0.3-2.5,0.4c-0.7,0.1-1.4,0.3-2,0.4c-1.4,0.3-2.8,0.6-4.2,0.9c-1.3,0.3-2.7,0.5-4,0.8
				c-0.2,0-0.3,0.3-0.4,0.4c-0.7,2.2-1.5,4.3-2.2,6.5c-0.2,0.5-0.2,0.8,0.2,1.2c0.4,0.4,0.7,0.9,1.1,1.3c1.1,1.3,2.3,2.7,3.4,4
				c1.2,1.3,2.4,2.7,3.5,4c0.2,0.2,0.4,0.5,0.4,0.7c-0.1,0.9-0.3,1.8-0.5,2.7c-0.2,1.1-0.4,2.2-0.6,3.2c-0.1,0.4-0.3,1-0.6,1.2
				c-2.1,1.2-4.2,2.2-6.3,3.3c-1.6,0.9-3.3,1.7-4.9,2.5c-0.4,0.2-0.6,0.5-0.7,1c0,0.5-0.1,1.1-0.1,1.6c-0.1,1.7-0.2,3.5-0.3,5.2
				c0,0.4,0.1,0.7,0.4,0.9c0.7,0.5,1.5,1,2.2,1.5c1.5,1,2.9,1.9,4.4,2.9c1.1,0.7,2.3,1.4,3.3,2.2c0.4,0.3,1,0.3,1,1
				c0.1,1.5,0.2,3,0.4,4.4c0.1,0.7,0.2,1.5,0.2,2.2c0,0.2-0.1,0.4-0.2,0.5c-0.6,0.6-1.3,1.2-2,1.8c-1.6,1.5-3.1,3-4.7,4.4
				c-0.9,0.8-1.7,1.6-2.6,2.4c-0.4,0.4-0.5,0.8-0.3,1.3c0.1,0.4,0.2,0.8,0.3,1.3c0.4,1.7,0.8,3.4,1.1,5.1c0.1,0.6,0.5,0.8,1,1
				c0.9,0.3,1.9,0.6,2.8,0.8c1.4,0.4,2.8,0.9,4.2,1.4c1.6,0.5,3.2,1,4.8,1.5c0.2,0.1,0.4,0.2,0.4,0.4c0.3,0.8,0.6,1.5,0.9,2.3
				c0.4,1.1,0.7,2.3,1.2,3.4c0.4,0.8,0.2,1.3-0.2,1.9c-0.9,1.4-1.8,2.8-2.7,4.2c-1.2,1.9-2.3,3.8-3.5,5.7c-0.3,0.5-0.4,0.9-0.1,1.4
				c1,1.8,2,3.6,2.9,5.5c0.4,0.9,1.1,1,1.9,1c1.7,0,3.4,0.1,5.1,0.2c1.1,0,2.2,0.1,3.2,0.2c1.1,0,2.2,0,3.3,0.1
				c0.3,0,0.7,0.2,0.9,0.5c0.4,0.4,0.8,1,1.1,1.5c0.7,1,1.4,2.1,2.1,3c0.5,0.6,0.8,1,0.5,1.9c-0.5,1.3-0.7,2.7-1.1,4
				c-0.3,1-0.7,2-0.9,3c-0.4,1.5-0.8,3-1.2,4.5c-0.2,0.5,0,0.9,0.3,1.3c0.5,0.4,0.9,0.9,1.3,1.4c1.2,1.2,2.3,2.4,3.5,3.6
				c0.2,0.2,0.5,0.2,0.7,0.2c1.2-0.3,2.4-0.6,3.6-0.8c1.8-0.4,3.5-0.9,5.3-1.3c1-0.2,2-0.5,3-0.8c0.5-0.1,1-0.2,1.4,0.1
				c0.4,0.3,0.7,0.6,1.1,0.9c1.1,0.9,2.2,1.8,3.3,2.7c0.3,0.3,0.8,0.6,0.9,1c0.1,1.2,0,2.4,0,3.6c0,1.1-0.1,2.2,0,3.3
				c0,1.7,0.1,3.3,0,5c-0.1,1,0,1.7,1.1,2.1c0.1,0,0.1,0.1,0.2,0.1c1.7,1,3.5,2.1,5.2,3.1c0.3,0.2,0.6,0.2,1,0
				c0.9-0.5,1.8-1,2.7-1.5c1.7-0.9,3.4-1.9,5-2.8c0.8-0.4,1.5-0.9,2.3-1.4c0.7-0.3,1.3-0.8,2.1-0.4c1.6,0.8,3.2,1.6,4.9,2.1
				c1,0.3,1.3,1,1.5,1.8c0.2,1,0.5,2,0.8,3c0.5,1.7,1,3.5,1.5,5.2c0.2,0.8,0.4,1.7,0.7,2.5c0.2,0.7,0.5,1.3,1.3,1.4
				c0.6,0.1,1.1,0.2,1.7,0.4c1.4,0.4,2.8,0.8,4.2,1.2c0.4,0.1,0.9,0.4,1.4-0.1c1.3-1.4,2.6-2.7,4-4.1c1.6-1.6,3.2-3.1,4.8-4.7
				c0.4-0.4,0.8-0.5,1.4-0.4c1.7,0.2,3.5,0.4,5.2,0.6c0.7,0.1,1.5,0.1,1.7,1.1c0,0,0.1,0.1,0.1,0.1c1,1.6,1.9,3.1,2.9,4.7
				c1,1.6,2,3.3,3,5c0.2,0.4,0.5,0.5,0.9,0.5c0.6-0.1,1.3-0.1,1.9-0.1c2-0.2,4-0.3,6.1-0.5c0.3,0,0.6-0.3,0.8-0.5
				c0.8-1.4,1.6-2.8,2.3-4.2c1-1.9,2.1-3.7,3.1-5.6c0.2-0.3,0.4-0.5,0.8-0.5c1-0.1,2.1-0.3,3.1-0.5c1.1-0.2,2.2-0.3,3.4-0.5
				c0.2,0,0.4,0.1,0.5,0.2c0.9,0.8,1.7,1.7,2.6,2.5c2.2,2,4.3,4,6.5,6c0.3,0.3,0.6,0.7,1.3,0.5c1.5-0.5,3-1,4.5-1.4
				c0.9-0.3,1.8-0.5,2.6-0.7c0.2-0.8,0.4-1.6,0.6-2.3c0.4-1.8,0.9-3.7,1.3-5.5c0.4-1.5,0.7-3,1.1-4.6c0.1-0.6,0.4-1,1-1.2
				c1.3-0.5,2.6-1.2,3.8-1.7c0.7-0.3,1.3-0.5,2-0.8c0.1,0,0.3,0,0.4,0c1.1,0.6,2.2,1.2,3.4,1.8c0.8,0.4,1.5,0.9,2.3,1.3
				c0.9,0.5,1.8,0.9,2.7,1.3c1.2,0.6,2.3,1.2,3.4,1.8c0.3-0.2,0.5-0.4,0.8-0.5c1.8-1.1,3.6-2.1,5.3-3.3c0.3-0.2,0.7-0.6,0.8-1
				c0.1-1,0-2.1-0.1-3.1c-0.1-1.9-0.2-3.8-0.2-5.7c0-1.1,0.1-2.3-0.1-3.4c-0.1-0.8,0.2-1.2,0.6-1.6c1.6-1.3,3.2-2.6,4.8-3.9
				c0.1-0.1,0.2-0.1,0.3-0.1c1.4,0.3,2.9,0.6,4.3,0.9c0.9,0.2,1.9,0.5,2.8,0.6c1,0.2,2,0.4,3,0.6c1,0.2,2.1,0.5,3,0.7
				c0.4-0.3,0.7-0.5,0.9-0.8c1.4-1.6,2.8-3.2,4.2-4.8c0.2-0.2,0.3-0.5,0.2-0.7c-0.3-1.1-0.6-2.1-0.9-3.2c-0.5-1.6-1.1-3.3-1.6-4.9
				c-0.4-1.1-0.8-2.3-1.1-3.4c-0.2-0.5-0.5-1.1-0.1-1.6c0.3-0.4,0.5-0.8,0.8-1.1c0.8-1.2,1.5-2.3,2.3-3.5c0.4-0.6,0.8-1.1,1.8-1.1
				c1.1,0.1,2.3-0.1,3.4-0.2c1.8-0.1,3.5-0.3,5.3-0.4c1.2-0.1,2.5-0.1,3.7-0.2c0.1,0,0.3-0.1,0.3-0.3c0.4-0.8,0.8-1.6,1.2-2.4
				c0.8-1.6,1.6-3.1,2.4-4.6c-1-1.4-1.9-2.8-2.8-4.2c-1.5-2.2-2.9-4.5-4.4-6.7c-0.1-0.2-0.3-0.5-0.3-0.7c0.3-1.2,0.8-2.3,1.2-3.5
				c0.3-0.9,0.6-1.8,1-2.7c0.1-0.3,0.4-0.6,0.6-0.7c0.7-0.3,1.5-0.5,2.2-0.8c1.2-0.4,2.4-0.8,3.5-1.2c2-0.7,4-1.4,6.1-2.1
				c0.6-0.2,0.8-0.6,0.9-1.2c0.4-2,0.8-4.1,1.1-6.1c0.1-0.4,0.1-0.9-0.1-1.1c-0.5-0.6-1.2-1.1-1.9-1.7c-1.3-1.1-2.6-2.2-3.8-3.3
				c-1.2-1.1-2.4-2.2-3.7-3.2c-0.6-0.5-0.7-0.9-0.6-1.6c0.1-0.7,0.1-1.4,0.2-2.1c0.1-1.3,0.1-2.6,0.2-3.9c0-0.2,0.2-0.4,0.4-0.5
				c1.1-0.8,2.2-1.6,3.4-2.3c2.1-1.4,4.1-2.9,6.2-4.3c0.5-0.3,0.7-0.7,0.6-1.2c-0.1-0.6-0.1-1.3-0.1-1.9c-0.2-1.9-0.3-3.8-0.5-5.7
				c0-0.2-0.2-0.5-0.4-0.6c-1.6-0.8-3.1-1.5-4.7-2.2c-2-1-4.1-1.9-6.1-3c-0.3-0.2-0.6-0.6-0.7-0.9c-0.2-0.9-0.4-1.9-0.6-2.8
				c-0.2-0.8-0.5-1.6-0.6-2.4c-0.1-0.5-0.1-1.1,0-1.6c0.1-0.4,0.6-0.7,0.9-1.1c1.1-1.3,2.2-2.6,3.2-3.9c1.3-1.6,2.7-3.2,4-4.8
				c0.2-0.2,0.3-0.6,0.2-0.9c-0.3-0.9-0.6-1.7-0.9-2.6c-0.5-1.4-1.1-2.9-1.6-4.3c-0.1-0.1-0.2-0.3-0.4-0.3c-0.5-0.1-1.1-0.2-1.6-0.3
				c-1.9-0.3-3.7-0.6-5.6-0.9c-1.6-0.3-3.2-0.5-4.7-0.8c-0.5-0.1-1.1-0.2-1.4-0.5c-0.6-0.8-0.9-1.7-1.4-2.5
				c-0.2-0.4-0.5-0.9-0.7-1.3c-0.4-0.8-0.8-1.5-1.2-2.3c-0.1-0.1,0-0.4,0.1-0.5c0.8-1.8,1.5-3.5,2.3-5.3c1-2.2,1.9-4.3,2.9-6.5
				c0.1-0.2,0-0.5-0.1-0.6c-0.3-0.5-0.7-0.8-1-1.3c-1.1-1.5-2.2-3.1-3.3-4.6c-0.1-0.1-0.3-0.3-0.4-0.3c-0.5,0-1.1,0.1-1.6,0.1
				c-1.8,0.2-3.7,0.4-5.5,0.6c-1.3,0.1-2.6,0.2-3.9,0.3c-0.6,0.1-1.2,0.2-1.8,0.2c-0.2,0-0.6-0.1-0.7-0.2c-1-1-1.9-2-2.8-2.9
				c-0.5-0.5-1-0.9-1.4-1.4c-0.2-0.2-0.5-0.6-0.5-0.9c0-0.5,0.1-1,0.2-1.5c0.3-2,0.5-4,0.8-6c0.2-1.5,0.5-3,0.7-4.5
				c0.1-0.5,0.4-1.1-0.2-1.6c-1.7-1.3-3.4-2.7-5.2-4c-0.4-0.3-0.7-0.8-1.3-0.5c-0.9,0.4-1.8,0.8-2.7,1.1c-1.8,0.7-3.5,1.3-5.3,2
				c-1.1,0.4-2.2,0.9-3.3,1.4c-0.5,0.2-1.1,0.3-1.6,0c-0.4-0.3-0.9-0.5-1.3-0.8c-0.9-0.5-1.7-1-2.6-1.5c-1-0.6-2-1-2.1-2.5
				c-0.1-1.6-0.4-3.2-0.6-4.9c-0.3-2.2-0.6-4.4-0.8-6.6c-0.1-0.7-0.4-0.9-1-1.1c-0.1,0-0.3-0.1-0.4-0.1c-2-0.9-4.1-1.7-6.1-2.6
				c-1.4,1.1-2.9,2.2-4.3,3.3c-2.1,1.5-4.1,3.1-6.2,4.6c-0.2,0.2-0.6,0.3-0.9,0.2c-1-0.2-2-0.5-2.9-0.8c-0.6-0.2-1.2-0.3-1.8-0.4
				c-1-0.3-2-0.4-2.5-1.7c-0.9-2.4-2-4.8-3-7.1c-0.5-1.2-1-2.5-1.5-3.7c-0.1-0.4-0.3-0.6-0.8-0.6c-1-0.1-1.9-0.2-2.9-0.4
				c-1.5-0.2-3.1-0.4-4.5-0.6c-0.7,0.9-1.4,1.8-2.1,2.7c-1,1.3-2,2.7-3,4c-0.8,1.1-1.6,2.2-2.5,3.2c-0.3,0.3-0.6,0.9-0.9,0.9
				c-1,0.1-2,0.1-3,0.1c-1.3,0-2.5,0-3.8,0c-0.1,0-0.3,0-0.4-0.1c-0.8-1-1.6-1.9-2.4-2.9c-0.8-1-1.6-2-2.4-3
				c-1.1-1.4-2.2-2.7-3.3-4.1c-0.3-0.3-0.5-0.5-0.9-0.4c-0.9,0.2-1.9,0.3-2.8,0.5c-1.5,0.2-2.9,0.4-4.4,0.6c-0.2,0-0.4,0.2-0.4,0.3
				c-0.5,1.3-1,2.6-1.5,3.9c-0.4,0.9-0.7,1.9-1.1,2.8c-0.3,0.8-0.7,1.7-1,2.5c-0.4,0.9-0.7,1.9-1.2,2.8c-0.1,0.2-0.3,0.4-0.5,0.5
				c-1,0.3-2,0.5-3,0.8c-0.9,0.3-1.8,0.6-2.7,0.9c-0.5,0.1-1,0.3-1.6-0.1c-1.8-1.3-3.7-2.7-5.5-4C147.8,72.5,146.1,71.3,144.4,70z"
				/>
			<path d="M144.4,70c1.7,1.2,3.4,2.4,5.1,3.6c1.8,1.3,3.7,2.6,5.5,4c0.5,0.4,1.1,0.2,1.6,0.1c0.9-0.3,1.8-0.6,2.7-0.9
				c1-0.3,2-0.5,3-0.8c0.2-0.1,0.4-0.3,0.5-0.5c0.4-0.9,0.8-1.9,1.2-2.8c0.3-0.8,0.7-1.7,1-2.5c0.4-0.9,0.7-1.9,1.1-2.8
				c0.5-1.3,1-2.6,1.5-3.9c0.1-0.2,0.3-0.3,0.4-0.3c1.5-0.2,2.9-0.4,4.4-0.6c1-0.1,1.9-0.3,2.8-0.5c0.4-0.1,0.7,0.1,0.9,0.4
				c1.1,1.4,2.2,2.7,3.3,4.1c0.8,1,1.6,2,2.4,3c0.8,1,1.6,2,2.4,2.9c0.1,0.1,0.3,0.1,0.4,0.1c1.3,0,2.5,0,3.8,0c1,0,2,0.1,3-0.1
				c0.4,0,0.7-0.6,0.9-0.9c0.8-1.1,1.6-2.2,2.5-3.2c1-1.3,2-2.7,3-4c0.7-0.9,1.4-1.7,2.1-2.7c1.5,0.2,3,0.4,4.5,0.6
				c1,0.1,1.9,0.3,2.9,0.4c0.5,0,0.7,0.3,0.8,0.6c0.5,1.2,1,2.5,1.5,3.7c1,2.4,2.1,4.7,3,7.1c0.5,1.3,1.5,1.4,2.5,1.7
				c0.6,0.2,1.2,0.3,1.8,0.4c1,0.3,2,0.6,2.9,0.8c0.3,0.1,0.6-0.1,0.9-0.2c2.1-1.5,4.2-3,6.2-4.6c1.5-1.1,2.9-2.2,4.3-3.3
				c2.1,0.9,4.1,1.8,6.1,2.6c0.1,0.1,0.3,0.1,0.4,0.1c0.6,0.2,0.9,0.4,1,1.1c0.2,2.2,0.5,4.4,0.8,6.6c0.2,1.6,0.5,3.2,0.6,4.9
				c0.1,1.5,1.1,1.9,2.1,2.5c0.9,0.5,1.7,1,2.6,1.5c0.4,0.3,0.9,0.5,1.3,0.8c0.5,0.4,1,0.3,1.6,0c1.1-0.5,2.2-0.9,3.3-1.4
				c1.8-0.7,3.5-1.3,5.3-2c0.9-0.3,1.8-0.7,2.7-1.1c0.7-0.4,1,0.2,1.3,0.5c1.7,1.3,3.4,2.7,5.2,4c0.6,0.5,0.3,1.1,0.2,1.6
				c-0.2,1.5-0.5,3-0.7,4.5c-0.3,2-0.5,4-0.8,6c-0.1,0.5-0.2,1-0.2,1.5c0,0.3,0.3,0.6,0.5,0.9c0.5,0.5,1,0.9,1.4,1.4
				c0.9,1,1.9,2,2.8,2.9c0.2,0.2,0.5,0.2,0.7,0.2c0.6,0,1.2-0.1,1.8-0.2c1.3-0.1,2.6-0.2,3.9-0.3c1.8-0.2,3.7-0.4,5.5-0.6
				c0.5-0.1,1.1-0.1,1.6-0.1c0.1,0,0.3,0.1,0.4,0.3c1.1,1.5,2.2,3.1,3.3,4.6c0.3,0.4,0.7,0.8,1,1.3c0.1,0.2,0.1,0.5,0.1,0.6
				c-0.9,2.2-1.9,4.3-2.9,6.5c-0.8,1.8-1.5,3.5-2.3,5.3c-0.1,0.2-0.1,0.4-0.1,0.5c0.4,0.8,0.8,1.5,1.2,2.3c0.2,0.4,0.5,0.9,0.7,1.3
				c0.4,0.9,0.8,1.8,1.4,2.5c0.2,0.3,0.9,0.4,1.4,0.5c1.6,0.3,3.2,0.6,4.7,0.8c1.9,0.3,3.7,0.6,5.6,0.9c0.5,0.1,1.1,0.2,1.6,0.3
				c0.2,0,0.3,0.2,0.4,0.3c0.5,1.4,1.1,2.9,1.6,4.3c0.3,0.9,0.7,1.7,0.9,2.6c0.1,0.3,0,0.7-0.2,0.9c-1.3,1.6-2.6,3.2-4,4.8
				c-1.1,1.3-2.2,2.6-3.2,3.9c-0.3,0.4-0.7,0.7-0.9,1.1c-0.1,0.5-0.1,1.1,0,1.6c0.1,0.8,0.4,1.6,0.6,2.4c0.2,0.9,0.3,1.9,0.6,2.8
				c0.1,0.4,0.4,0.8,0.7,0.9c2,1,4,2,6.1,3c1.6,0.7,3.1,1.4,4.7,2.2c0.2,0.1,0.4,0.4,0.4,0.6c0.2,1.9,0.4,3.8,0.5,5.7
				c0.1,0.6,0.1,1.3,0.1,1.9c0.1,0.6-0.1,0.9-0.6,1.2c-2.1,1.4-4.1,2.9-6.2,4.3c-1.1,0.8-2.3,1.5-3.4,2.3c-0.2,0.1-0.3,0.3-0.4,0.5
				c-0.1,1.3-0.2,2.6-0.2,3.9c0,0.7-0.1,1.4-0.2,2.1c-0.1,0.7,0,1.1,0.6,1.6c1.3,1,2.5,2.2,3.7,3.2c1.3,1.1,2.6,2.2,3.8,3.3
				c0.6,0.6,1.3,1.1,1.9,1.7c0.2,0.2,0.1,0.8,0.1,1.1c-0.4,2-0.8,4.1-1.1,6.1c-0.1,0.5-0.3,1-0.9,1.2c-2,0.7-4,1.4-6.1,2.1
				c-1.2,0.4-2.4,0.8-3.5,1.2c-0.7,0.2-1.5,0.5-2.2,0.8c-0.3,0.1-0.5,0.5-0.6,0.7c-0.4,0.9-0.7,1.8-1,2.7c-0.4,1.2-0.8,2.3-1.2,3.5
				c-0.1,0.2,0.1,0.5,0.3,0.7c1.4,2.2,2.9,4.5,4.4,6.7c0.9,1.4,1.9,2.8,2.8,4.2c-0.8,1.5-1.6,3.1-2.4,4.6c-0.4,0.8-0.8,1.6-1.2,2.4
				c-0.1,0.1-0.2,0.2-0.3,0.3c-1.2,0.1-2.5,0.1-3.7,0.2c-1.8,0.1-3.5,0.3-5.3,0.4c-1.1,0.1-2.3,0.3-3.4,0.2c-1-0.1-1.4,0.5-1.8,1.1
				c-0.8,1.2-1.6,2.3-2.3,3.5c-0.3,0.4-0.5,0.8-0.8,1.1c-0.4,0.6-0.1,1.1,0.1,1.6c0.3,1.1,0.7,2.3,1.1,3.4c0.5,1.6,1.1,3.3,1.6,4.9
				c0.3,1.1,0.6,2.1,0.9,3.2c0.1,0.2-0.1,0.5-0.2,0.7c-1.4,1.6-2.8,3.2-4.2,4.8c-0.3,0.3-0.6,0.5-0.9,0.8c-0.9-0.2-1.9-0.4-3-0.7
				c-1-0.2-2-0.4-3-0.6c-0.9-0.2-1.9-0.4-2.8-0.6c-1.4-0.3-2.8-0.6-4.3-0.9c-0.1,0-0.2,0-0.3,0.1c-1.6,1.3-3.2,2.6-4.8,3.9
				c-0.5,0.4-0.8,0.9-0.6,1.6c0.2,1.1,0.1,2.3,0.1,3.4c0.1,1.9,0.2,3.8,0.2,5.7c0,1,0.1,2.1,0.1,3.1c0,0.3-0.4,0.8-0.8,1
				c-1.8,1.1-3.6,2.2-5.3,3.3c-0.3,0.2-0.5,0.3-0.8,0.5c-1.1-0.6-2.3-1.2-3.4-1.8c-0.9-0.5-1.8-0.9-2.7-1.3
				c-0.8-0.4-1.5-0.8-2.3-1.3c-1.1-0.6-2.2-1.2-3.4-1.8c-0.1-0.1-0.3-0.1-0.4,0c-0.7,0.3-1.3,0.5-2,0.8c-1.3,0.6-2.5,1.2-3.8,1.7
				c-0.6,0.2-0.9,0.6-1,1.2c-0.4,1.5-0.7,3-1.1,4.6c-0.4,1.8-0.9,3.7-1.3,5.5c-0.2,0.8-0.4,1.5-0.6,2.3c-0.8,0.2-1.7,0.5-2.6,0.7
				c-1.5,0.5-3,0.9-4.5,1.4c-0.7,0.2-0.9-0.2-1.3-0.5c-2.2-2-4.4-4-6.5-6c-0.9-0.8-1.7-1.7-2.6-2.5c-0.1-0.1-0.4-0.3-0.5-0.2
				c-1.1,0.1-2.2,0.3-3.4,0.5c-1,0.2-2.1,0.4-3.1,0.5c-0.4,0-0.6,0.2-0.8,0.5c-1.1,1.9-2.1,3.7-3.1,5.6c-0.8,1.4-1.5,2.8-2.3,4.2
				c-0.1,0.2-0.5,0.5-0.8,0.5c-2,0.2-4,0.4-6.1,0.5c-0.6,0.1-1.3,0.1-1.9,0.1c-0.4,0-0.7-0.1-0.9-0.5c-1-1.7-2-3.3-3-5
				c-1-1.6-1.9-3.1-2.9-4.7c0,0-0.1-0.1-0.1-0.1c-0.2-1-1-1-1.7-1.1c-1.7-0.3-3.5-0.4-5.2-0.6c-0.5-0.1-1,0-1.4,0.4
				c-1.6,1.6-3.2,3.1-4.8,4.7c-1.4,1.3-2.7,2.7-4,4.1c-0.5,0.6-1,0.2-1.4,0.1c-1.4-0.3-2.8-0.8-4.2-1.2c-0.6-0.2-1.1-0.3-1.7-0.4
				c-0.8-0.1-1.1-0.7-1.3-1.4c-0.2-0.8-0.4-1.7-0.7-2.5c-0.5-1.7-1-3.5-1.5-5.2c-0.3-1-0.5-2-0.8-3c-0.2-0.9-0.5-1.5-1.5-1.8
				c-1.7-0.5-3.3-1.3-4.9-2.1c-0.9-0.4-1.5,0.1-2.1,0.4c-0.8,0.4-1.6,0.9-2.3,1.4c-1.7,0.9-3.4,1.9-5,2.8c-0.9,0.5-1.8,1-2.7,1.5
				c-0.4,0.2-0.7,0.2-1,0c-1.7-1-3.5-2.1-5.2-3.1c-0.1,0-0.1-0.1-0.2-0.1c-1.1-0.3-1.1-1.1-1.1-2.1c0.1-1.7,0-3.3,0-5
				c0-1.1,0-2.2,0-3.3c0-1.2,0.1-2.4,0-3.6c0-0.4-0.5-0.7-0.9-1c-1.1-0.9-2.2-1.8-3.3-2.7c-0.4-0.3-0.7-0.6-1.1-0.9
				c-0.4-0.4-1-0.3-1.4-0.1c-1,0.2-2,0.5-3,0.8c-1.8,0.4-3.5,0.9-5.3,1.3c-1.2,0.3-2.4,0.6-3.6,0.8c-0.2,0-0.6,0-0.7-0.2
				c-1.2-1.2-2.4-2.4-3.5-3.6c-0.4-0.5-0.9-0.9-1.3-1.4c-0.4-0.4-0.5-0.8-0.3-1.3c0.4-1.5,0.8-3,1.2-4.5c0.3-1,0.7-2,0.9-3
				c0.4-1.3,0.6-2.7,1.1-4c0.3-0.8,0-1.3-0.5-1.9c-0.8-1-1.4-2-2.1-3c-0.4-0.5-0.7-1-1.1-1.5c-0.2-0.2-0.6-0.5-0.9-0.5
				c-1.1-0.1-2.2,0-3.3-0.1c-1.1,0-2.2-0.1-3.2-0.2c-1.7-0.1-3.4-0.1-5.1-0.2c-0.8,0-1.5-0.1-1.9-1c-0.9-1.9-1.9-3.7-2.9-5.5
				c-0.3-0.5-0.2-1,0.1-1.4c1.2-1.9,2.3-3.8,3.5-5.7c0.9-1.4,1.8-2.8,2.7-4.2c0.4-0.6,0.7-1.1,0.2-1.9c-0.6-1-0.8-2.2-1.2-3.4
				c-0.3-0.8-0.6-1.5-0.9-2.3c-0.1-0.2-0.3-0.3-0.4-0.4c-1.6-0.5-3.2-1-4.8-1.5c-1.4-0.5-2.8-0.9-4.2-1.4c-0.9-0.3-1.9-0.6-2.8-0.8
				c-0.5-0.1-0.8-0.3-1-1c-0.3-1.7-0.7-3.4-1.1-5.1c-0.1-0.4-0.2-0.9-0.3-1.3c-0.1-0.5-0.1-0.9,0.3-1.3c0.9-0.8,1.8-1.6,2.6-2.4
				c1.6-1.5,3.1-3,4.7-4.4c0.6-0.6,1.3-1.2,2-1.8c0.1-0.1,0.3-0.3,0.2-0.5c0-0.7-0.2-1.5-0.2-2.2c-0.1-1.5-0.3-3-0.4-4.4
				c0-0.7-0.7-0.8-1-1c-1.1-0.8-2.2-1.5-3.3-2.2c-1.5-1-2.9-1.9-4.4-2.9c-0.8-0.5-1.5-1-2.2-1.5c-0.3-0.2-0.4-0.5-0.4-0.9
				c0.1-1.7,0.2-3.5,0.3-5.2c0-0.5,0.1-1.1,0.1-1.6c0-0.5,0.2-0.7,0.7-1c1.7-0.8,3.3-1.7,4.9-2.5c2.1-1.1,4.2-2.2,6.3-3.3
				c0.3-0.2,0.5-0.7,0.6-1.2c0.2-1.1,0.4-2.2,0.6-3.2c0.2-0.9,0.4-1.8,0.5-2.7c0-0.2-0.2-0.5-0.4-0.7c-1.2-1.4-2.4-2.7-3.5-4
				c-1.2-1.3-2.3-2.7-3.4-4c-0.4-0.4-0.7-0.9-1.1-1.3c-0.3-0.4-0.3-0.8-0.2-1.2c0.7-2.2,1.5-4.3,2.2-6.5c0.1-0.2,0.2-0.4,0.4-0.4
				c1.3-0.3,2.7-0.5,4-0.8c1.4-0.3,2.8-0.6,4.2-0.9c0.7-0.1,1.4-0.3,2-0.4c0.8-0.2,1.7-0.3,2.5-0.4c0.2,0,0.5-0.2,0.6-0.4
				c0.5-0.8,0.9-1.7,1.3-2.5c0.4-0.9,0.8-1.8,1.3-2.6c0.5-0.8,0.6-1.5,0-2.3c-0.3-0.3-0.3-0.8-0.5-1.2c-0.9-1.9-1.7-3.8-2.6-5.6
				c-0.6-1.2-1.2-2.4-1.8-3.6c-0.3-0.5-0.3-1,0.1-1.5c1.2-1.7,2.5-3.4,3.6-5.2c0.5-0.7,1.1-0.7,1.8-0.6c2.5,0.2,5,0.4,7.6,0.6
				c1.3,0.1,2.7,0.2,4,0.3c0.5,0,1-0.1,1.3-0.5c1.4-1.6,2.8-3.1,4.2-4.7c0.1-0.1,0.2-0.4,0.2-0.6c-0.2-1.6-0.5-3.1-0.8-4.7
				c-0.2-1.3-0.5-2.7-0.7-4c-0.2-1.2-0.4-2.5-0.6-3.7c-0.1-0.5,0.1-0.9,0.5-1.2c1.4-1.1,2.7-2.3,4.1-3.4c0.1-0.1,0.2-0.1,0.2-0.2
				c1.1-1.5,2.3-0.6,3.5-0.2c1.4,0.5,2.8,1,4.2,1.5c1.3,0.5,2.6,1,3.9,1.5c0.8,0.3,1.6,0.6,2.3,0.8c0.1,0,0.2,0,0.3-0.1
				c1.9-1.2,3.8-2.3,5.6-3.5c0.2-0.1,0.4-0.4,0.5-0.7c0.1-1.1,0.2-2.1,0.3-3.2c0.1-1.1,0.3-2.1,0.4-3.2c0.2-1.7,0.4-3.3,0.5-5
				c0.1-0.5,0-1,0.2-1.5c0.1-0.3,0.3-0.5,0.5-0.7c1.3-0.6,2.5-1.1,3.8-1.7C142.4,71,143.4,70.5,144.4,70z M89.3,187.6
				C89.3,187.6,89.3,187.6,89.3,187.6c0,0.4,0.1,0.9,0.1,1.3c0.1,1.4,0.2,2.8,0.4,4.1c0.3,1.9,0.6,3.7,1,5.6
				c0.4,1.8,0.7,3.6,1.2,5.3c0.5,2,1,3.9,1.6,5.9c0.5,1.8,1.1,3.6,1.8,5.3c0.7,1.9,1.5,3.7,2.3,5.6c0.8,1.8,1.7,3.6,2.6,5.4
				c0.2,0.5,0.5,1,0.8,1.5c0.7,1.2,1.4,2.4,2.1,3.6c1.1,1.8,2.2,3.6,3.4,5.3c1.2,1.8,2.5,3.5,3.9,5.2c1.2,1.5,2.4,3,3.7,4.4
				c1,1.2,2,2.3,3.1,3.4c1.4,1.4,2.9,2.9,4.4,4.2c1.5,1.4,3,2.7,4.6,4c1.6,1.3,3.2,2.5,4.9,3.6c1.8,1.2,3.5,2.4,5.3,3.6
				c1.1,0.7,2.2,1.3,3.3,2c1.1,0.6,2.2,1.3,3.4,1.9c1.6,0.8,3.2,1.6,4.9,2.3c0.8,0.4,1.6,0.8,2.5,1.1c1.7,0.7,3.4,1.3,5,1.9
				c1.2,0.5,2.5,0.9,3.8,1.3c1.5,0.5,3.1,0.9,4.6,1.3c0.9,0.2,1.9,0.5,2.8,0.7c1.4,0.3,2.8,0.6,4.2,0.9c1,0.2,2.1,0.4,3.1,0.6
				c1.5,0.2,3,0.4,4.5,0.5c1.6,0.2,3.2,0.4,4.8,0.5c1.6,0.1,3.2,0.1,4.9,0.1c2.4,0,4.9-0.1,7.3-0.2c2.4-0.1,4.8-0.4,7.3-0.6
				c0.7-0.1,1.3-0.2,2-0.3c1.4-0.3,2.8-0.5,4.2-0.8c0.9-0.2,1.8-0.3,2.7-0.5c2.1-0.6,4.3-1.2,6.4-1.8c1.2-0.4,2.5-0.8,3.7-1.2
				c1.8-0.6,3.6-1.3,5.3-1.9c1-0.4,2-0.8,2.9-1.2c1.9-0.9,3.8-1.9,5.7-2.9c1.3-0.7,2.6-1.3,3.8-2.1c1.7-1,3.4-2.2,5.1-3.2
				c2.6-1.6,5-3.4,7.4-5.4c1.8-1.6,3.6-3.1,5.4-4.7c1-0.8,1.9-1.7,2.8-2.6c1.2-1.2,2.3-2.4,3.5-3.6c0.9-0.9,1.7-1.9,2.5-2.8
				c1.1-1.3,2.1-2.7,3.1-4c0.8-1,1.5-2,2.2-3c1.2-1.7,2.3-3.5,3.4-5.2c0.7-1.1,1.4-2.3,2.1-3.5c0.7-1.2,1.3-2.5,2-3.8
				c0.7-1.5,1.4-3,2.1-4.5c0.7-1.6,1.3-3.2,2-4.9c0.3-0.9,0.7-1.7,1-2.6c0.5-1.4,0.9-2.8,1.3-4.3c0.4-1.3,0.8-2.6,1.1-3.9
				c0.4-1.8,0.8-3.7,1.2-5.5c0.2-1,0.4-2,0.6-3c0.2-1.5,0.4-3,0.5-4.5c0.2-1.6,0.4-3.2,0.5-4.8c0.1-2.1,0.1-4.1,0.2-6.2
				c0-1.5,0-3-0.1-4.5c-0.1-1.8-0.2-3.6-0.3-5.5c0-0.6-0.1-1.3-0.2-1.9c-0.2-1.3-0.4-2.7-0.6-4c-0.1-0.8-0.2-1.7-0.4-2.5
				c-0.3-1.4-0.6-2.8-0.9-4.2c-0.4-1.8-0.9-3.5-1.4-5.3c-0.6-2.1-1.3-4.2-2-6.3c-0.4-1.2-0.8-2.3-1.2-3.5c-0.3-0.8-0.6-1.6-1-2.4
				c-0.9-1.9-1.8-3.7-2.7-5.5c-0.6-1.3-1.3-2.6-2-3.8c-0.9-1.6-1.9-3.2-2.9-4.8c-0.5-0.8-0.9-1.5-1.4-2.2c-1.2-1.7-2.5-3.4-3.8-5.1
				c-0.8-1-1.5-2-2.4-3c-0.8-1-1.7-2-2.6-3c-1.2-1.2-2.3-2.5-3.5-3.7c-1.2-1.2-2.5-2.4-3.7-3.5c-0.9-0.8-1.8-1.6-2.7-2.4
				c-1.3-1.1-2.7-2.1-4-3.1c-1-0.8-2-1.6-3.1-2.3c-1.4-1-2.8-1.9-4.3-2.8c-1.1-0.7-2.1-1.4-3.3-2c-1.9-1.1-3.9-2.1-5.8-3.1
				c-0.9-0.4-1.7-0.8-2.6-1.2c-0.8-0.4-1.6-0.7-2.5-1.1c-0.9-0.4-1.7-0.8-2.6-1.1c-1.2-0.5-2.5-0.9-3.7-1.3
				c-1.1-0.4-2.1-0.7-3.2-1.1c-1.4-0.4-2.7-0.8-4.1-1.2c-1.3-0.4-2.7-0.7-4-1c-1.2-0.3-2.4-0.5-3.7-0.7c-0.9-0.2-1.8-0.3-2.7-0.5
				c-1.2-0.2-2.4-0.3-3.7-0.5c-1-0.1-2-0.2-2.9-0.3c-1.6-0.1-3.2-0.2-4.8-0.2c-1.7-0.1-3.5-0.1-5.2-0.1c-1.9,0-3.8,0.2-5.8,0.3
				c-1.2,0.1-2.3,0.1-3.5,0.3c-1.8,0.2-3.6,0.5-5.5,0.8c-1.5,0.2-3,0.5-4.5,0.8c-0.7,0.1-1.4,0.3-2,0.4c-1.5,0.4-3,0.8-4.5,1.2
				c-1,0.3-2,0.5-3,0.9c-1.6,0.6-3.3,1.2-4.9,1.8c-1.9,0.7-3.8,1.4-5.6,2.2c-2.2,1-4.3,2.1-6.4,3.2c-0.7,0.3-1.3,0.6-2,1
				c-1.2,0.7-2.4,1.5-3.6,2.3c-1.5,1-3,1.9-4.4,2.9c-1.4,1-2.8,2-4.2,3.1c-1.6,1.3-3.3,2.6-4.8,4c-1.3,1.1-2.5,2.3-3.7,3.5
				c-0.9,0.9-1.8,1.7-2.7,2.7c-1.1,1.2-2.3,2.5-3.4,3.7c-0.9,1-1.7,2-2.5,3c-1,1.3-2,2.7-3,4.1c-0.7,1-1.5,2-2.2,3
				c-0.9,1.4-1.8,2.9-2.6,4.4c-1.1,1.9-2.1,3.7-3.1,5.6c-0.6,1.1-1,2.2-1.5,3.3c-0.6,1.4-1.2,2.7-1.8,4.1c-0.6,1.6-1.2,3.1-1.8,4.7
				c-0.5,1.3-1,2.7-1.3,4c-0.6,2.1-1.1,4.3-1.7,6.4c-0.4,1.9-0.9,3.8-1.2,5.7c-0.3,1.9-0.5,3.8-0.7,5.7c-0.2,1.6-0.3,3.2-0.5,4.8
				c-0.1,0.6-0.1,1.2-0.1,1.8c0,1.6-0.1,3.2-0.1,4.9c0,0.7,0,1.5,0,2.2C89.1,183.9,89.2,185.8,89.3,187.6z"/>
			<path class="st0" d="M89.3,187.6c-0.1-1.8-0.2-3.7-0.3-5.5c0-0.7,0-1.5,0-2.2c0-1.6,0-3.2,0.1-4.9c0-0.6,0-1.2,0.1-1.8
				c0.2-1.6,0.3-3.2,0.5-4.8c0.2-1.9,0.4-3.8,0.7-5.7c0.3-1.9,0.8-3.8,1.2-5.7c0.5-2.1,1.1-4.3,1.7-6.4c0.4-1.4,0.9-2.7,1.3-4
				c0.6-1.6,1.2-3.2,1.8-4.7c0.6-1.4,1.2-2.7,1.8-4.1c0.5-1.1,1-2.2,1.5-3.3c1-1.9,2.1-3.8,3.1-5.6c0.8-1.5,1.7-3,2.6-4.4
				c0.7-1,1.4-2,2.2-3c1-1.4,2-2.7,3-4.1c0.8-1,1.6-2,2.5-3c1.1-1.3,2.2-2.5,3.4-3.7c0.9-0.9,1.8-1.8,2.7-2.7
				c1.2-1.2,2.4-2.4,3.7-3.5c1.6-1.4,3.2-2.7,4.8-4c1.3-1.1,2.7-2.1,4.2-3.1c1.4-1,2.9-1.9,4.4-2.9c1.2-0.8,2.4-1.5,3.6-2.3
				c0.6-0.4,1.3-0.7,2-1c2.1-1.1,4.2-2.2,6.4-3.2c1.8-0.8,3.7-1.5,5.6-2.2c1.6-0.6,3.3-1.2,4.9-1.8c1-0.3,2-0.6,3-0.9
				c1.5-0.4,3-0.8,4.5-1.2c0.7-0.2,1.3-0.3,2-0.4c1.5-0.3,3-0.5,4.5-0.8c1.8-0.3,3.6-0.6,5.5-0.8c1.2-0.2,2.3-0.2,3.5-0.3
				c1.9-0.1,3.8-0.2,5.8-0.3c1.7,0,3.5,0,5.2,0.1c1.6,0.1,3.2,0.1,4.8,0.2c1,0.1,2,0.2,2.9,0.3c1.2,0.1,2.4,0.3,3.7,0.5
				c0.9,0.1,1.8,0.3,2.7,0.5c1.2,0.2,2.4,0.4,3.7,0.7c1.3,0.3,2.7,0.6,4,1c1.4,0.4,2.7,0.8,4.1,1.2c1.1,0.3,2.2,0.7,3.2,1.1
				c1.2,0.4,2.5,0.8,3.7,1.3c0.9,0.3,1.8,0.7,2.6,1.1c0.8,0.4,1.6,0.7,2.5,1.1c0.9,0.4,1.8,0.8,2.6,1.2c2,1,3.9,2,5.8,3.1
				c1.1,0.6,2.2,1.3,3.3,2c1.4,0.9,2.9,1.8,4.3,2.8c1.1,0.7,2,1.5,3.1,2.3c1.3,1,2.7,2.1,4,3.1c0.9,0.8,1.8,1.6,2.7,2.4
				c1.3,1.2,2.5,2.3,3.7,3.5c1.2,1.2,2.4,2.4,3.5,3.7c0.9,1,1.8,2,2.6,3c0.8,1,1.6,2,2.4,3c1.3,1.7,2.5,3.4,3.8,5.1
				c0.5,0.7,0.9,1.5,1.4,2.2c1,1.6,2,3.2,2.9,4.8c0.7,1.3,1.4,2.6,2,3.8c0.9,1.8,1.8,3.7,2.7,5.5c0.4,0.8,0.7,1.6,1,2.4
				c0.4,1.2,0.9,2.3,1.2,3.5c0.7,2.1,1.4,4.2,2,6.3c0.5,1.7,0.9,3.5,1.4,5.3c0.3,1.4,0.6,2.8,0.9,4.2c0.2,0.8,0.3,1.7,0.4,2.5
				c0.2,1.3,0.4,2.7,0.6,4c0.1,0.6,0.1,1.3,0.2,1.9c0.1,1.8,0.2,3.6,0.3,5.5c0.1,1.5,0.1,3,0.1,4.5c0,2.1,0,4.1-0.2,6.2
				c-0.1,1.6-0.3,3.2-0.5,4.8c-0.2,1.5-0.3,3-0.5,4.5c-0.2,1-0.4,2-0.6,3c-0.4,1.9-0.7,3.7-1.2,5.5c-0.3,1.3-0.7,2.6-1.1,3.9
				c-0.4,1.4-0.9,2.8-1.3,4.3c-0.3,0.9-0.6,1.8-1,2.6c-0.7,1.6-1.3,3.3-2,4.9c-0.7,1.5-1.4,3-2.1,4.5c-0.6,1.3-1.3,2.5-2,3.8
				c-0.7,1.2-1.3,2.4-2.1,3.5c-1.1,1.8-2.2,3.5-3.4,5.2c-0.7,1-1.5,2-2.2,3c-1,1.3-2.1,2.7-3.1,4c-0.8,1-1.6,1.9-2.5,2.8
				c-1.1,1.2-2.3,2.4-3.5,3.6c-0.9,0.9-1.8,1.8-2.8,2.6c-1.8,1.6-3.6,3.1-5.4,4.7c-2.3,2-4.8,3.8-7.4,5.4c-1.7,1.1-3.4,2.2-5.1,3.2
				c-1.2,0.7-2.5,1.4-3.8,2.1c-1.9,1-3.8,1.9-5.7,2.9c-0.9,0.5-1.9,0.9-2.9,1.2c-1.8,0.7-3.5,1.3-5.3,1.9c-1.2,0.4-2.5,0.8-3.7,1.2
				c-2.1,0.6-4.3,1.2-6.4,1.8c-0.9,0.2-1.8,0.3-2.7,0.5c-1.4,0.3-2.8,0.6-4.2,0.8c-0.7,0.1-1.3,0.2-2,0.3c-2.4,0.2-4.8,0.5-7.3,0.6
				c-2.4,0.1-4.9,0.2-7.3,0.2c-1.6,0-3.2,0-4.9-0.1c-1.6-0.1-3.2-0.3-4.8-0.5c-1.5-0.2-3-0.3-4.5-0.5c-1.1-0.1-2.1-0.4-3.1-0.6
				c-1.4-0.3-2.8-0.6-4.2-0.9c-0.9-0.2-1.9-0.4-2.8-0.7c-1.5-0.4-3.1-0.8-4.6-1.3c-1.3-0.4-2.5-0.9-3.8-1.3c-1.7-0.6-3.4-1.2-5-1.9
				c-0.8-0.3-1.6-0.7-2.5-1.1c-1.6-0.8-3.3-1.5-4.9-2.3c-1.2-0.6-2.3-1.2-3.4-1.9c-1.1-0.6-2.3-1.3-3.3-2c-1.8-1.2-3.6-2.4-5.3-3.6
				c-1.7-1.2-3.3-2.4-4.9-3.6c-1.6-1.3-3.1-2.6-4.6-4c-1.5-1.4-3-2.8-4.4-4.2c-1.1-1.1-2.1-2.2-3.1-3.4c-1.2-1.4-2.5-2.9-3.7-4.4
				c-1.3-1.7-2.7-3.4-3.9-5.2c-1.2-1.7-2.3-3.5-3.4-5.3c-0.7-1.2-1.4-2.4-2.1-3.6c-0.3-0.5-0.5-1-0.8-1.5c-0.9-1.8-1.8-3.6-2.6-5.4
				c-0.8-1.8-1.6-3.7-2.3-5.6c-0.7-1.7-1.2-3.5-1.8-5.3c-0.6-1.9-1.1-3.9-1.6-5.9c-0.4-1.8-0.8-3.5-1.2-5.3c-0.4-1.8-0.7-3.7-1-5.6
				c-0.2-1.4-0.3-2.8-0.4-4.1C89.4,188.5,89.3,188,89.3,187.6C89.3,187.6,89.3,187.6,89.3,187.6z M283,172.8
				C283,172.7,283.1,172.7,283,172.8c-0.1-0.9-0.1-1.7-0.3-2.6c-0.3-2.3-0.6-4.5-0.9-6.8c-0.2-1.5-0.5-3-0.8-4.5
				c-0.1-0.6-0.3-1.3-0.5-1.9c-0.4-1.6-0.9-3.2-1.4-4.8c-0.3-1.1-0.6-2.1-1-3.2c-0.6-1.6-1.2-3.3-1.9-4.9c-0.6-1.4-1.2-2.9-1.9-4.3
				c-0.9-1.8-1.7-3.6-2.7-5.3c-1.1-1.9-2.2-3.8-3.3-5.6c-0.6-1-1.2-2-1.9-3c-1.3-1.7-2.6-3.5-4-5.2c-1-1.3-2.1-2.6-3.2-3.9
				c-1.6-1.8-3.3-3.5-5-5.2c-1.2-1.2-2.4-2.3-3.7-3.4c-1.5-1.3-3.2-2.6-4.8-3.8c-1.3-1-2.7-2-4.1-2.9c-1.8-1.2-3.6-2.3-5.5-3.4
				c-0.7-0.4-1.4-0.9-2.2-1.3c-1.2-0.6-2.4-1.1-3.5-1.7c-1.6-0.7-3.1-1.5-4.7-2.2c-1.4-0.6-2.8-1.1-4.1-1.6c-0.9-0.3-1.7-0.7-2.6-1
				c-1.4-0.4-2.7-0.8-4.1-1.2c-1-0.3-2.1-0.6-3.1-0.9c-1.4-0.3-2.7-0.6-4.1-0.9c-1-0.2-2-0.5-3.1-0.6c-1.6-0.2-3.2-0.4-4.8-0.6
				c-1.1-0.1-2.2-0.3-3.2-0.4c-1.2-0.1-2.5-0.1-3.7-0.2c-1.1,0-2.3-0.1-3.4-0.1c-1.3,0-2.6,0.1-3.9,0.1c-1.2,0-2.4,0.1-3.6,0.2
				c-2.6,0.3-5.2,0.6-7.9,0.9c-0.7,0.1-1.3,0.2-2,0.3c-1.5,0.3-2.9,0.6-4.4,0.9c-0.9,0.2-1.9,0.4-2.8,0.6c-1.7,0.5-3.5,1-5.2,1.5
				c-0.9,0.3-1.9,0.6-2.8,0.9c-1.8,0.7-3.6,1.5-5.4,2.2c-1.2,0.5-2.5,1-3.7,1.6c-2,1.1-4.1,2.2-6.1,3.3c-1.9,1.1-3.7,2.2-5.5,3.4
				c-1.7,1.1-3.3,2.3-4.9,3.6c-1.9,1.5-3.7,3-5.5,4.6c-1.6,1.4-3.1,2.9-4.5,4.3c-1.2,1.2-2.3,2.4-3.4,3.6c-1.3,1.6-2.6,3.2-3.9,4.8
				c-0.8,1-1.5,2-2.2,3c-0.9,1.3-1.8,2.7-2.6,4.1c-0.9,1.5-1.8,2.9-2.7,4.5c-0.9,1.6-1.7,3.2-2.5,4.8c-0.7,1.5-1.4,3-2.1,4.5
				c-0.7,1.7-1.3,3.4-1.9,5.1c-0.4,1.3-0.9,2.5-1.3,3.8c-0.3,1.1-0.6,2.2-0.9,3.4c-0.2,0.9-0.5,1.7-0.6,2.6
				c-0.3,1.6-0.6,3.1-0.9,4.7c-0.2,1-0.4,2-0.5,3c-0.2,1.5-0.3,3.1-0.5,4.6c-0.1,1.1-0.3,2.3-0.3,3.4c-0.1,1.6-0.1,3.2-0.1,4.9
				c0,1.3-0.1,2.5,0,3.8c0.1,1.8,0.2,3.5,0.4,5.3c0.2,2.1,0.5,4.3,0.8,6.4c0.4,2.4,0.9,4.7,1.4,7.1c0.4,1.9,1,3.8,1.6,5.6
				c0.7,2.1,1.4,4.2,2.2,6.3c0.6,1.5,1.2,3,1.8,4.4c0.8,1.7,1.6,3.4,2.4,5.1c0.8,1.6,1.7,3.2,2.6,4.8c0.8,1.3,1.7,2.6,2.5,3.9
				c1.6,2.3,3.2,4.7,5,6.9c2,2.4,4.2,4.8,6.4,7c2.1,2.1,4.2,4.1,6.5,6c2.2,1.9,4.6,3.6,6.9,5.3c1.4,1.1,3,2,4.4,2.9
				c1,0.6,1.9,1.2,2.9,1.7c1.6,0.9,3.2,1.7,4.8,2.5c1.1,0.6,2.3,1.1,3.4,1.6c1.6,0.7,3.3,1.3,5,2c0.9,0.3,1.8,0.7,2.7,1
				c1.4,0.5,2.8,0.9,4.3,1.3c1,0.3,2,0.5,3,0.8c1.3,0.3,2.6,0.6,3.9,0.9c1.1,0.2,2.1,0.5,3.2,0.7c1.6,0.3,3.3,0.5,5,0.7
				c1.5,0.2,2.9,0.3,4.4,0.4c1.3,0.1,2.5,0.1,3.8,0.1c1.1,0,2.2,0.1,3.3,0.1c1.9,0,3.8-0.1,5.7-0.2c1.2-0.1,2.4-0.1,3.6-0.3
				c1.9-0.2,3.7-0.5,5.6-0.8c0.9-0.1,1.8-0.2,2.7-0.4c2.1-0.5,4.2-1,6.2-1.5c1.6-0.4,3.2-0.9,4.8-1.4c0.8-0.2,1.6-0.5,2.3-0.8
				c1.7-0.7,3.4-1.4,5.1-2.1c1.5-0.6,2.9-1.3,4.3-2c1.9-0.9,3.8-1.9,5.6-3c1.6-0.9,3.1-1.8,4.6-2.7c1.7-1.1,3.4-2.4,5.1-3.6
				c1.9-1.5,3.8-3,5.7-4.6c1.5-1.3,3-2.7,4.5-4.2c1.5-1.5,2.9-3,4.2-4.6c1.3-1.5,2.6-3.2,3.9-4.8c1-1.3,2-2.6,3-4
				c1-1.4,1.8-2.9,2.7-4.3c0.9-1.4,1.7-2.8,2.5-4.3c0.9-1.6,1.7-3.3,2.4-4.9c0.7-1.5,1.4-3,2-4.5c0.6-1.4,1.1-2.8,1.6-4.2
				c0.3-0.9,0.6-1.7,0.9-2.6c0.4-1.3,0.7-2.7,1.1-4c0.3-1,0.6-2,0.8-3c0.4-2,0.8-4,1.2-6c0.2-1,0.4-2,0.5-3c0.1-1.1,0.2-2.2,0.3-3.2
				c0.1-1.1,0.3-2.3,0.3-3.4c0.1-1.7,0.1-3.4,0.1-5.2c0-1.2,0-2.3,0-3.5C283.2,175.5,283.1,174.1,283,172.8z"/>
			<path d="M283,172.8c0.1,1.4,0.2,2.7,0.3,4.1c0,1.2,0,2.3,0,3.5c0,1.7-0.1,3.5-0.1,5.2c-0.1,1.1-0.2,2.3-0.3,3.4
				c-0.1,1.1-0.2,2.2-0.3,3.2c-0.1,1-0.3,2-0.5,3c-0.4,2-0.7,4-1.2,6c-0.2,1-0.5,2-0.8,3c-0.4,1.3-0.7,2.7-1.1,4
				c-0.3,0.9-0.6,1.7-0.9,2.6c-0.5,1.4-1,2.8-1.6,4.2c-0.6,1.5-1.3,3-2,4.5c-0.8,1.7-1.6,3.3-2.4,4.9c-0.8,1.5-1.6,2.9-2.5,4.3
				c-0.9,1.4-1.7,2.9-2.7,4.3c-0.9,1.4-2,2.7-3,4c-1.3,1.6-2.5,3.2-3.9,4.8c-1.4,1.6-2.8,3.1-4.2,4.6c-1.4,1.4-2.9,2.8-4.5,4.2
				c-1.8,1.6-3.8,3.1-5.7,4.6c-1.7,1.3-3.3,2.5-5.1,3.6c-1.5,1-3,1.9-4.6,2.7c-1.9,1-3.7,2-5.6,3c-1.4,0.7-2.9,1.4-4.3,2
				c-1.7,0.7-3.4,1.4-5.1,2.1c-0.8,0.3-1.5,0.6-2.3,0.8c-1.6,0.5-3.2,0.9-4.8,1.4c-2.1,0.5-4.1,1-6.2,1.5c-0.9,0.2-1.8,0.3-2.7,0.4
				c-1.9,0.3-3.7,0.6-5.6,0.8c-1.2,0.2-2.4,0.2-3.6,0.3c-1.9,0.1-3.8,0.2-5.7,0.2c-1.1,0-2.2,0-3.3-0.1c-1.3,0-2.5-0.1-3.8-0.1
				c-1.5-0.1-2.9-0.3-4.4-0.4c-1.7-0.2-3.3-0.4-5-0.7c-1.1-0.2-2.2-0.4-3.2-0.7c-1.3-0.3-2.6-0.6-3.9-0.9c-1-0.2-2-0.5-3-0.8
				c-1.4-0.4-2.9-0.9-4.3-1.3c-0.9-0.3-1.8-0.7-2.7-1c-1.7-0.6-3.3-1.3-5-2c-1.2-0.5-2.3-1.1-3.4-1.6c-1.6-0.8-3.2-1.6-4.8-2.5
				c-1-0.5-2-1.1-2.9-1.7c-1.5-1-3-1.9-4.4-2.9c-2.3-1.7-4.7-3.4-6.9-5.3c-2.3-1.9-4.4-3.9-6.5-6c-2.2-2.3-4.4-4.6-6.4-7
				c-1.8-2.2-3.4-4.6-5-6.9c-0.9-1.3-1.8-2.6-2.5-3.9c-0.9-1.6-1.8-3.2-2.6-4.8c-0.8-1.7-1.6-3.4-2.4-5.1c-0.7-1.5-1.3-2.9-1.8-4.4
				c-0.8-2.1-1.5-4.2-2.2-6.3c-0.6-1.9-1.1-3.7-1.6-5.6c-0.5-2.3-1-4.7-1.4-7.1c-0.3-2.1-0.6-4.3-0.8-6.4c-0.2-1.7-0.3-3.5-0.4-5.3
				c-0.1-1.2,0-2.5,0-3.8c0-1.6,0-3.2,0.1-4.9c0-1.2,0.2-2.3,0.3-3.4c0.2-1.5,0.3-3.1,0.5-4.6c0.1-1,0.3-2,0.5-3
				c0.3-1.6,0.6-3.1,0.9-4.7c0.2-0.9,0.4-1.7,0.6-2.6c0.3-1.1,0.6-2.3,0.9-3.4c0.4-1.3,0.8-2.5,1.3-3.8c0.6-1.7,1.2-3.5,1.9-5.1
				c0.6-1.5,1.3-3,2.1-4.5c0.8-1.6,1.6-3.3,2.5-4.8c0.8-1.5,1.8-3,2.7-4.5c0.8-1.4,1.7-2.7,2.6-4.1c0.7-1,1.4-2.1,2.2-3
				c1.3-1.6,2.6-3.3,3.9-4.8c1.1-1.3,2.2-2.5,3.4-3.6c1.5-1.5,3-3,4.5-4.3c1.8-1.6,3.6-3.1,5.5-4.6c1.6-1.3,3.2-2.5,4.9-3.6
				c1.8-1.2,3.6-2.3,5.5-3.4c2-1.2,4-2.3,6.1-3.3c1.2-0.6,2.4-1.1,3.7-1.6c1.8-0.8,3.6-1.5,5.4-2.2c0.9-0.4,1.8-0.6,2.8-0.9
				c1.7-0.5,3.4-1.1,5.2-1.5c0.9-0.3,1.9-0.4,2.8-0.6c1.5-0.3,2.9-0.6,4.4-0.9c0.7-0.1,1.3-0.2,2-0.3c2.6-0.3,5.2-0.7,7.9-0.9
				c1.2-0.1,2.4-0.1,3.6-0.2c1.3,0,2.6-0.1,3.9-0.1c1.1,0,2.3,0.1,3.4,0.1c1.2,0.1,2.5,0.1,3.7,0.2c1.1,0.1,2.2,0.2,3.2,0.4
				c1.6,0.2,3.2,0.4,4.8,0.6c1,0.2,2,0.4,3.1,0.6c1.4,0.3,2.7,0.6,4.1,0.9c1.1,0.3,2.1,0.6,3.1,0.9c1.4,0.4,2.7,0.8,4.1,1.2
				c0.9,0.3,1.7,0.6,2.6,1c1.4,0.5,2.8,1,4.1,1.6c1.6,0.7,3.1,1.5,4.7,2.2c1.2,0.6,2.4,1.1,3.5,1.7c0.8,0.4,1.5,0.9,2.2,1.3
				c1.8,1.1,3.7,2.2,5.5,3.4c1.4,0.9,2.8,1.9,4.1,2.9c1.6,1.2,3.2,2.5,4.8,3.8c1.3,1.1,2.5,2.2,3.7,3.4c1.7,1.7,3.4,3.4,5,5.2
				c1.1,1.2,2.2,2.5,3.2,3.9c1.3,1.7,2.7,3.4,4,5.2c0.7,0.9,1.3,2,1.9,3c1.1,1.9,2.3,3.7,3.3,5.6c1,1.7,1.8,3.5,2.7,5.3
				c0.7,1.4,1.3,2.9,1.9,4.3c0.7,1.6,1.3,3.3,1.9,4.9c0.4,1,0.7,2.1,1,3.2c0.5,1.6,0.9,3.2,1.4,4.8c0.2,0.6,0.3,1.3,0.5,1.9
				c0.3,1.5,0.6,3,0.8,4.5c0.3,2.3,0.6,4.5,0.9,6.8C282.9,171,283,171.9,283,172.8C283.1,172.7,283,172.7,283,172.8z M219.9,177.5
				c-0.7-8.2-4-15.1-10-20.6c-6.4-5.8-13.9-8.4-22.5-7.9c-8,0.5-14.9,3.7-20.4,9.6c-5.9,6.3-8.7,13.8-8.3,22.4
				c0.4,8.1,3.5,15,9.3,20.6c6.4,6.2,14.2,9.1,23.1,8.6c8.4-0.5,15.5-4,21.1-10.3C217.9,193.5,220.3,186,219.9,177.5z"/>
			<path class="st0" d="M219.9,177.5c0.4,8.5-2,16.1-7.7,22.5c-5.6,6.3-12.7,9.8-21.1,10.3c-8.9,0.5-16.7-2.4-23.1-8.6
				c-5.8-5.6-9-12.6-9.3-20.6c-0.4-8.6,2.4-16.1,8.3-22.4c5.5-5.9,12.4-9.1,20.4-9.6c8.6-0.5,16.2,2.1,22.5,7.9
				C215.9,162.4,219.2,169.3,219.9,177.5z M189.4,198.1c0,0,0-0.1,0-0.1c0.2,0,0.5,0,0.7,0c1.6-0.3,3.2-0.5,4.7-0.9
				c1-0.2,2-0.6,2.9-1.2c1.9-1.1,3.7-2.3,5.1-4.1c0.7-0.9,1.5-1.8,2.1-2.7c1.2-2,2.1-4.3,2.4-6.6c0.2-1.1,0.2-2.2,0.1-3.3
				c-0.1-1.3-0.2-2.6-0.5-3.9c-0.2-1-0.5-2-1-3c-0.6-1.2-1.3-2.4-2-3.4c-0.8-1.1-1.7-2-2.7-3c-1.2-1.2-2.5-2-4-2.7
				c-1.2-0.5-2.5-1.1-3.8-1.4c-1.5-0.3-3.1-0.4-4.6-0.4c-1.6-0.1-3.2,0.3-4.8,0.7c-2.1,0.6-4,1.6-5.8,2.9c-2.8,2-4.7,4.6-6,7.7
				c-0.7,1.6-1.1,3.3-1.2,5.1c-0.1,1.3-0.2,2.6,0,3.9c0.3,2.3,1,4.5,2.1,6.6c1,1.9,2.3,3.5,3.9,4.8c1,0.8,2,1.7,3.1,2.3
				c1.4,0.8,3,1.5,4.5,1.9C186.2,197.8,187.9,197.8,189.4,198.1z"/>
			<path d="M189.4,198.1c-1.6-0.2-3.2-0.3-4.7-0.7c-1.6-0.4-3.1-1.1-4.5-1.9c-1.1-0.6-2.2-1.4-3.1-2.3c-1.6-1.4-2.9-3-3.9-4.8
				c-1.1-2.1-1.8-4.3-2.1-6.6c-0.2-1.3-0.1-2.6,0-3.9c0.1-1.8,0.6-3.4,1.2-5.1c1.3-3.1,3.2-5.8,6-7.7c1.8-1.3,3.6-2.3,5.8-2.9
				c1.6-0.5,3.2-0.8,4.8-0.7c1.5,0.1,3.1,0.1,4.6,0.4c1.3,0.3,2.6,0.9,3.8,1.4c1.5,0.7,2.9,1.5,4,2.7c0.9,0.9,1.9,1.9,2.7,3
				c0.8,1.1,1.5,2.2,2,3.4c0.5,0.9,0.8,2,1,3c0.3,1.3,0.4,2.6,0.5,3.9c0.1,1.1,0,2.2-0.1,3.3c-0.3,2.4-1.2,4.6-2.4,6.6
				c-0.6,1-1.4,1.8-2.1,2.7c-1.4,1.8-3.2,3-5.1,4.1c-0.9,0.5-1.9,0.9-2.9,1.2c-1.6,0.4-3.2,0.6-4.7,0.9c-0.2,0-0.5,0-0.7,0
				C189.5,198,189.5,198,189.4,198.1z"/>
		</g>
	</g>
	<ellipse transform="matrix(0.9967 -8.065671e-02 8.065671e-02 0.9967 -13.8123 15.8288)" cx="189" cy="178.9" rx="103" ry="103"/>
</g>
<g>
	<path class="st1" d="M75.1,184.4v-3.2c2.1-0.4,3.7-0.9,4.8-1.5c1-0.5,1.8-1.3,2.3-2.2c0.5-0.9,0.8-2.2,0.8-3.8
		c0-1.5-0.2-3.1-0.5-4.9c-0.3-1.7-0.8-3.7-1.5-5.9l-2.4-8.5H48.7l-2.2,6.5c-1.1,3.3-1.8,5.7-2.2,7.4c-0.3,1.7-0.5,3.2-0.5,4.6
		c0,2.6,0.7,4.6,2,5.8c1.3,1.2,3.3,2.1,6,2.5v3.2H24.5v-3.2c2.4-0.4,4.5-1.8,6.2-4.3c1.8-2.5,3.5-6,5.2-10.6l26.7-73.3h10.1
		l21.8,73.8c1,3.4,1.9,6.1,2.7,7.9c0.8,1.8,1.7,3.2,2.9,4.2c1.1,1,2.6,1.8,4.5,2.3v3.2H75.1z M50.5,148.6h26.8l-12.2-42.7
		L50.5,148.6z"/>
	<path class="st1" d="M170.4,95.9v18.3h-6.3c-1-3.8-2.3-6.9-3.9-9.2c-1.6-2.3-3.4-3.9-5.5-4.9c-2.1-1-4.6-1.5-7.6-1.5
		c-4.4,0-8.3,1.5-11.8,4.5c-3.4,3-6.1,7.6-8.1,13.6c-2,6.1-2.9,13.4-2.9,22c0,8.7,0.8,16,2.4,22.2c1.6,6.1,4,10.7,7.2,13.8
		c3.2,3.1,7,4.7,11.7,4.7c3.5,0,6.4-0.5,8.6-1.6c2.2-1,4.1-2.7,5.6-4.9c1.5-2.3,3-5.6,4.3-9.9h6.3v18.9c-4,1.1-8.1,1.9-12.3,2.5
		c-4.2,0.6-8.8,0.8-13.9,0.8c-10.8,0-19-3.8-24.6-11.4c-5.6-7.6-8.3-18.9-8.3-34c0-9.4,1.4-17.7,4.3-24.8
		c2.9-7.1,7.1-12.6,12.7-16.5c5.6-3.9,12.3-5.8,20-5.8c3.9,0,7.5,0.2,10.8,0.6C162.4,93.9,166.2,94.7,170.4,95.9z"/>
	<path class="st1" d="M245.1,94v20h-6.3c-0.6-2.2-1.3-4.1-2-5.7c-0.7-1.6-1.4-3-2.1-4.1c-0.7-1.1-1.5-2-2.4-2.6
		c-0.9-0.7-1.9-1.1-3.1-1.4c-1.2-0.2-2.6-0.4-4.3-0.4h-20.2v34.7h13.7c1.9,0,3.4-0.3,4.4-0.8c1.1-0.6,2-1.5,2.7-2.8
		c0.7-1.3,1.4-3.4,2-6.2h6v25.4h-6c-0.6-2.6-1.3-4.6-2-6c-0.7-1.3-1.6-2.3-2.6-2.9c-1-0.6-2.5-0.9-4.5-0.9h-13.7v38.2h19.9
		c2.1,0,3.8-0.2,5.1-0.6c1.3-0.4,2.4-1,3.4-1.9c0.9-0.9,1.8-2.1,2.5-3.5c0.7-1.5,1.3-3,1.8-4.5c0.5-1.6,1.2-3.9,2-6.9h6.3l-1.2,23.2
		h-59.3v-3.2c2.6-0.7,4.4-1.5,5.3-2.4c0.9-0.9,1.5-2.1,1.8-3.7c0.3-1.6,0.4-4,0.4-7.3v-57.3c0-3-0.1-5.3-0.3-6.7
		c-0.2-1.4-0.6-2.5-1.1-3.2c-0.5-0.8-1.1-1.4-2-1.9c-0.8-0.5-2.2-1-4.2-1.6V94H245.1z"/>
</g>
<g>
	<path class="st0" d="M90.5,195.9v1.2c0,1.7-1.2,2.7-3.3,2.7c-2,0-3.2-1-3.2-2.7v-1.2c0-1.8,1.2-2.7,3.2-2.7
		C89.3,193.2,90.5,194.1,90.5,195.9z M89.9,225.6h-5.4v-22.4h5.4V225.6z"/>
	<path class="st0" d="M113.8,210.5v15.2h-5.4V211c0-2.5-0.8-3.4-2.1-3.4c-1.3,0-2.7,1-3.7,2.8v15.2h-5.4v-22.4h5v3.1
		c1.6-2.5,3.6-3.6,5.9-3.6C111.6,202.7,113.8,205.2,113.8,210.5z"/>
	<path class="st0" d="M137.6,203.2h5.6v4.6h-5.6v10.8c0,2,0.8,2.8,2.5,2.8c1.1,0,2.8-0.2,3.8-0.5l0.1,4.6c-0.9,0.2-2.9,0.6-4.4,0.6
		c-5.2,0-7.5-2.1-7.5-7.8v-10.6h-2.9v-4.6h3l0.8-6h4.6V203.2z"/>
	<path class="st0" d="M154.9,205.7c1.5-2.1,3.3-3.1,5.4-3.1c3.7,0,5.8,2.5,5.8,7.8v15.2h-5.4V211c0-2.5-0.8-3.4-2.1-3.4
		c-1.3,0-2.7,1-3.7,2.8v15.2h-5.4v-31.4h5.4V205.7z"/>
	<path class="st0" d="M189.2,211.1v5.1H178v1.7c0,2.4,1.1,3.4,3.9,3.4c1.9,0,4.4-0.4,6.2-0.7l0.1,4.7c-2.3,0.5-5.1,0.9-6.8,0.9
		c-6.4,0-8.9-2.6-8.9-8.8v-6.3c0-5.4,2.6-8.5,8.2-8.5C186.2,202.7,189.2,205.6,189.2,211.1z M178,210.4v1.8h5.8v-1.7
		c0-2.3-1.1-3.3-2.9-3.3C179.2,207.2,178,208.3,178,210.4z"/>
	<path class="st0" d="M180.7,264.2h-6.4v-15.1h-11.1v15.1h-6.5v-35h6.5v14.1h11.1v-14.1h6.4V264.2z"/>
	<path class="st0" d="M213.5,240.4V253c0,7.4-3.6,11.8-12.2,11.8c-8.5,0-12.2-4.4-12.2-11.8v-12.7c0-7.5,3.7-11.8,12.2-11.8
		C209.8,228.6,213.5,232.9,213.5,240.4z M195.6,239.9v13.6c0,3.7,1.9,5.6,5.7,5.6c3.8,0,5.7-1.9,5.7-5.6V240c0-3.6-1.9-5.6-5.7-5.6
		C197.5,234.3,195.6,236.3,195.6,239.9z"/>
	<path class="st0" d="M228.5,258.4h13.2v5.8H222v-35h6.5V258.4z"/>
	<path class="st0" d="M268.2,235.1h-13.2v8.4h12.2v5.8h-12.2v9h13.2v5.9h-19.7v-35h19.7V235.1z"/>
</g>
<path id="SVGID_x5F_1_x5F_" class="st2" d="M301,128c28.1,61.9,0.7,134.8-61.2,162.8C178,319,105.1,291.6,77,229.7
	S76.3,95,138.2,66.9S272.9,66.2,301,128z"/>
<text><textPath  xlink:href="#SVGID_x5F_1_x5F_" startOffset="92.3177%">
<tspan  style="font-family:'RopaSansPro-MediumItalic'; font-size:25px; letter-spacing:304;">MULTISPORT  EVENTS  FOR  EVERY  BODY</tspan></textPath>
</text>
</svg>
